<?xml version="1.0" standalone="no"?>
<!DOCTYPE svg PUBLIC "-//W3C//DTD SVG 20010904//EN"
 "http://www.w3.org/TR/2001/REC-SVG-20010904/DTD/svg10.dtd">
<svg version="1.0" xmlns="http://www.w3.org/2000/svg"
 width="434.000000pt" height="450.000000pt" viewBox="0 0 434.000000 450.000000"
 preserveAspectRatio="xMidYMid meet">

<g transform="translate(0.000000,450.000000) scale(0.100000,-0.100000)"
fill="#000000" stroke="none">
<path d="M1227 4228 c-361 -215 -653 -536 -837 -921 -148 -309 -210 -582 -210
-922 0 -264 29 -448 107 -688 218 -667 774 -1201 1453 -1396 220 -63 319 -76
595 -75 213 0 268 4 369 22 585 108 1089 434 1417 918 53 77 54 131 5 180 -42
42 -67 43 -208 9 -57 -14 -154 -32 -216 -40 -127 -17 -389 -19 -502 -5 -106
14 -294 50 -309 60 -11 6 -10 22 7 86 11 44 24 122 28 174 5 71 11 100 25 115
26 29 49 89 49 129 0 51 -33 149 -71 208 -18 29 -64 85 -101 124 l-68 71 47
31 c77 49 184 164 239 255 156 259 160 565 11 837 -55 101 -203 249 -307 307
-203 114 -438 139 -656 72 -309 -95 -529 -359 -575 -688 -8 -54 -18 -83 -39
-113 -16 -22 -34 -64 -41 -94 -7 -30 -16 -57 -20 -60 -9 -5 -41 129 -65 271
-21 123 -24 448 -6 580 16 116 54 275 93 394 28 84 30 97 20 133 -8 26 -23 45
-44 58 -53 33 -93 26 -190 -32z m177 -41 c8 -12 2 -42 -21 -114 -89 -274 -124
-549 -103 -814 21 -285 80 -521 186 -748 l44 -93 -28 -42 c-15 -22 -34 -54
-41 -70 l-12 -29 -19 31 c-58 96 -198 72 -232 -40 -9 -31 -8 -45 7 -83 26 -71
96 -105 164 -82 l37 13 -14 -75 c-18 -104 -13 -377 8 -409 19 -30 95 -78 168
-108 45 -18 59 -29 67 -53 6 -16 14 -33 18 -37 15 -15 6 -26 -10 -13 -15 13
-15 12 -2 -8 7 -12 9 -26 5 -30 -5 -4 -10 -3 -13 3 -2 6 -16 9 -32 6 -20 -3
-35 2 -49 16 -16 16 -23 17 -42 7 -22 -12 -22 -13 16 -23 24 -6 31 -10 17 -11
-12 -1 -34 4 -49 11 -24 11 -28 10 -50 -17 -13 -17 -24 -36 -24 -44 0 -25 67
-77 126 -98 76 -28 135 -43 130 -35 -2 4 10 7 27 7 18 0 47 4 66 8 68 15 23
-3 -66 -26 -107 -28 -171 -63 -214 -117 -28 -35 -33 -37 -47 -24 -13 14 -17
14 -31 -1 -13 -13 -14 -17 -2 -24 8 -5 10 -14 6 -22 -7 -10 -10 -8 -17 7 -5
11 -5 5 -1 -16 3 -19 10 -53 14 -75 5 -33 7 -35 8 -11 0 16 4 27 7 23 9 -9 -6
-78 -15 -72 -8 5 -20 77 -24 145 -2 42 -28 71 -55 63 -11 -2 -22 -1 -25 5 -10
15 61 13 76 -3 8 -8 17 -11 21 -8 9 9 -83 65 -94 58 -6 -3 -7 0 -4 8 5 14 -41
42 -49 29 -2 -4 -2 -2 -1 5 5 18 -17 28 -26 12 -5 -7 -7 -16 -5 -19 2 -3 -6
-7 -17 -7 -20 -2 -20 -1 2 19 l23 21 -29 21 c-16 12 -53 40 -81 64 -54 43 -70
52 -57 30 6 -10 4 -10 -7 -2 -8 6 -28 11 -44 9 -26 -1 -31 2 -30 20 0 12 5 28
11 36 8 11 6 18 -8 32 -20 19 -25 9 -5 -13 10 -12 9 -12 -3 -3 -8 6 -29 10
-46 8 -28 -1 -30 1 -29 28 1 16 7 32 14 37 10 5 9 9 -4 13 -11 5 -14 3 -9 -6
6 -8 3 -8 -9 1 -9 8 -29 12 -44 9 -15 -2 -21 -2 -13 1 12 4 11 6 -5 13 -13 5
-4 6 25 3 27 -2 38 -1 27 4 -10 4 -17 12 -15 16 2 5 -15 10 -37 10 -43 1 -68
12 -60 26 8 12 -32 23 -59 16 -15 -4 -29 1 -40 13 -14 15 -15 23 -5 45 14 31
29 34 36 6 5 -21 87 -80 110 -80 7 0 13 -5 13 -10 0 -21 135 9 167 38 34 29
56 71 46 85 -5 6 -10 34 -11 62 -2 27 -8 55 -14 62 -6 7 -7 13 -4 13 4 0 1 6
-6 14 -13 14 -28 4 -28 -19 0 -5 5 -3 10 5 5 8 10 11 10 5 0 -5 -4 -16 -9 -24
-7 -11 -10 -9 -16 8 -8 26 10 52 31 44 20 -8 17 14 -8 49 -25 36 -109 78 -156
78 -71 0 -154 -60 -167 -123 -9 -36 -19 -27 -51 40 -20 41 -29 52 -36 42 -7
-11 -8 -9 -6 6 1 11 -13 52 -32 90 -31 64 -34 68 -42 45 -5 -17 -6 -12 -3 17
4 31 2 42 -7 39 -7 -1 -10 -1 -5 1 11 7 9 33 -3 33 -5 0 -10 6 -10 14 0 27
-43 127 -50 116 -4 -6 -7 10 -7 35 0 25 -5 55 -11 68 -6 12 -22 74 -35 137
-15 67 -25 100 -26 80 0 -19 6 -62 14 -95 8 -33 14 -73 14 -90 -1 -24 -3 -22
-11 15 -5 25 -14 68 -20 97 -6 29 -9 85 -6 125 4 43 3 61 -2 43 l-8 -30 -1 31
c0 16 -7 36 -13 43 -11 11 -10 13 3 9 12 -5 15 2 17 31 1 27 -1 31 -7 16 -15
-38 -19 42 -5 114 33 176 150 440 280 636 181 272 461 534 708 665 52 27 61
29 79 17 12 -8 26 -21 31 -30z m1006 -427 c12 -8 10 -10 -9 -10 -45 0 -155
-32 -229 -66 -231 -105 -423 -340 -471 -574 l-11 -55 -61 0 -61 0 6 57 c26
226 196 460 416 573 121 62 371 106 420 75z m250 -62 c39 -17 147 -84 115 -72
-11 4 -45 16 -75 27 -74 28 -274 30 -370 4 -87 -23 -212 -86 -282 -142 -127
-100 -232 -265 -264 -415 -11 -52 -22 -80 -31 -80 -23 0 -24 23 -3 103 76 299
343 538 655 587 80 12 212 6 255 -12z m198 -245 c145 -147 200 -320 157 -502
-9 -35 -18 -68 -22 -74 -3 -6 -17 30 -30 79 -36 135 -119 296 -207 401 -40 48
-92 103 -115 122 -22 19 -41 38 -41 41 0 4 41 8 90 9 l90 2 78 -78z m-809
-338 c66 -34 78 -136 21 -187 -37 -34 -68 -35 -105 -6 -62 48 -68 137 -13 183
34 29 57 31 97 10z m-324 -137 c87 -58 142 -178 133 -293 -7 -84 -41 -144
-101 -177 -16 -8 -14 -2 7 35 35 60 42 126 22 207 -34 134 -102 206 -206 220
l-45 6 30 16 c49 28 104 23 160 -14z m-78 -85 c72 -53 115 -181 93 -274 -24
-97 -99 -129 -171 -70 -113 94 -135 316 -35 365 37 18 69 12 113 -21z m431
-75 c29 -29 3 -84 -35 -76 -25 5 -40 52 -23 72 15 19 41 21 58 4z m-1798 -99
c-6 -41 -11 -101 -12 -134 -1 -48 -2 -54 -8 -28 -4 17 -1 76 6 130 7 54 13
102 14 107 0 5 2 7 5 4 3 -3 1 -38 -5 -79z m28 -79 c0 -9 -3 -7 -8 5 -5 11 -8
29 -8 40 0 16 2 15 8 -5 4 -14 8 -32 8 -40z m-9 -60 c13 0 31 -141 25 -200 -3
-30 -5 -120 -5 -200 0 -153 -4 -193 -20 -169 -5 8 -8 25 -8 39 1 23 2 23 9 -5
8 -30 8 -30 9 -3 0 15 -4 61 -10 103 -8 61 -8 80 3 93 11 13 11 15 -4 9 -10
-3 -18 -2 -18 3 0 6 7 10 15 10 21 0 21 202 0 280 -8 30 -14 66 -13 80 1 19 2
17 5 -7 2 -18 8 -33 12 -33z m1763 -178 c133 -83 279 -120 436 -109 93 6 233
44 291 78 34 20 35 20 18 1 -29 -32 -128 -80 -198 -97 -83 -19 -238 -19 -331
0 -40 9 -113 35 -163 60 -127 62 -254 179 -239 220 5 13 19 3 65 -48 33 -36
87 -83 121 -105z m-1815 -94 c-1 -40 -3 -8 -3 72 0 80 2 112 3 73 2 -40 2
-106 0 -145z m1375 162 c10 0 18 -4 18 -10 0 -5 -18 -10 -40 -10 -34 0 -42 4
-55 30 l-16 30 38 -20 c21 -11 46 -20 55 -20z m381 -129 c65 -44 160 -87 241
-107 37 -9 65 -18 63 -20 -2 -2 -43 3 -92 11 -112 20 -215 60 -301 118 -76 50
-145 117 -128 124 6 2 19 10 29 17 16 11 25 6 79 -49 34 -33 83 -76 109 -94z
m-1716 -33 c-2 -24 -4 -7 -4 37 0 44 2 63 4 43 2 -21 2 -57 0 -80z m1440 89
c3 -4 3 -13 -1 -22 -4 -12 -12 -14 -28 -9 -13 4 -42 13 -66 19 -23 6 -39 15
-35 19 9 8 120 2 130 -7z m-1342 -47 c3 -5 1 -10 -4 -10 -6 0 -11 5 -11 10 0
6 2 10 4 10 3 0 8 -4 11 -10z m1282 -20 l32 -11 -26 -67 c-14 -37 -39 -114
-55 -172 -16 -58 -31 -111 -33 -117 -3 -7 -11 -10 -20 -7 -21 8 -73 -14 -85
-37 -26 -47 -4 -97 58 -128 17 -9 22 -20 22 -54 0 -23 4 -69 10 -101 5 -33 8
-61 6 -64 -7 -7 -121 56 -141 78 -18 20 -20 36 -20 189 1 119 6 190 18 251 26
125 57 217 82 244 20 21 27 23 71 15 27 -4 63 -13 81 -19z m194 -18 c95 -62
139 -84 219 -110 190 -61 386 -55 565 18 l70 29 77 -80 c54 -55 88 -101 112
-152 37 -75 59 -166 38 -153 -7 4 -12 15 -12 25 0 29 -56 108 -99 139 -34 25
-37 30 -22 39 11 7 13 14 6 21 -7 7 -25 4 -57 -10 -26 -11 -54 -18 -62 -15 -9
4 -17 27 -21 61 -5 40 -12 56 -23 56 -12 0 -14 -10 -9 -59 l5 -59 -47 -12
c-25 -6 -60 -20 -77 -30 -30 -19 -31 -19 -82 0 -73 28 -163 26 -228 -4 -45
-21 -54 -22 -82 -11 -39 17 -52 42 -52 100 0 42 -2 46 -22 43 -20 -3 -23 -10
-26 -53 -3 -64 22 -108 73 -126 25 -9 35 -18 31 -29 -3 -8 -17 -48 -31 -89
-17 -48 -27 -97 -28 -138 -1 -74 -6 -76 -84 -38 -74 37 -126 98 -148 173 -14
46 -23 62 -37 62 -10 0 -18 -4 -18 -10 0 -5 -8 -10 -18 -10 -22 0 -142 40
-142 47 0 14 43 168 64 230 31 91 76 193 86 193 4 0 40 -22 81 -48z m-511 -28
c0 -20 -4 -25 -16 -20 -9 3 -22 6 -30 6 -8 0 -14 5 -14 10 0 6 6 10 13 9 30
-4 39 4 12 11 l-30 8 33 1 c28 1 32 -2 32 -25z m-73 -19 c-1 -19 -4 -35 -8
-35 -8 0 -19 52 -12 62 11 19 21 5 20 -27z m106 0 c-3 -9 -8 -14 -10 -11 -3 3
-2 9 2 15 9 16 15 13 8 -4z m-129 -45 c4 -25 3 -31 -4 -20 -5 8 -10 26 -10 39
0 32 6 24 14 -19z m-823 -14 c12 -14 11 -59 -1 -51 -5 3 -10 18 -11 33 0 25
-1 25 -10 7 -8 -17 -9 -17 -4 5 2 14 5 32 6 40 1 9 3 7 6 -5 3 -11 9 -24 14
-29z m978 22 c0 -22 -1 -22 -10 -3 -7 15 -8 11 -4 -16 4 -25 1 -40 -10 -49 -9
-8 -15 -8 -15 -2 0 6 5 14 10 17 6 3 10 11 10 17 0 6 -9 3 -19 -6 -11 -10 -26
-16 -33 -13 -9 4 -8 6 3 6 20 1 31 25 22 48 -4 10 -2 14 5 9 6 -3 13 -2 17 4
11 18 25 11 24 -12z m-1128 -138 c9 12 10 12 5 -3 -3 -10 -6 -28 -6 -39 0 -39
-11 -10 -20 51 -5 34 -6 79 -2 99 6 29 8 21 10 -43 2 -59 6 -76 13 -65z m6 43
c-3 -10 -5 -2 -5 17 0 19 2 27 5 18 2 -10 2 -26 0 -35z m1028 38 c5 0 3 -7 -4
-13 -11 -11 -14 -10 -18 0 -3 6 -9 10 -13 7 -5 -3 -11 -1 -14 3 -5 8 8 9 49 3z
m-908 -33 c-3 -8 -6 -5 -6 6 -1 11 2 17 5 13 3 -3 4 -12 1 -19z m2411 -155
c46 -35 72 -91 72 -158 0 -65 -18 -88 -78 -104 -97 -27 -168 20 -187 122 -10
50 24 117 77 156 45 33 51 32 116 -16z m-2524 12 c4 -14 2 -33 -3 -43 -9 -14
-10 -13 -11 10 0 14 -3 33 -6 42 -3 9 -2 16 4 16 5 0 13 -11 16 -25z m224 -5
c15 -34 9 -50 -19 -50 -20 0 -26 30 -13 64 9 23 17 20 32 -14z m2112 13 c0 -3
-7 -14 -16 -24 -9 -10 -22 -34 -28 -54 l-13 -37 -22 37 c-11 20 -21 38 -21 41
0 5 80 43 93 44 4 0 7 -3 7 -7z m-183 -39 c78 -45 113 -137 113 -299 0 -167
-54 -360 -106 -384 -14 -6 -47 -11 -73 -11 -86 0 -116 45 -142 215 -12 72 -26
95 -45 71 -16 -22 1 -155 29 -225 l25 -61 -78 0 c-165 0 -317 34 -385 86 -91
69 -160 204 -169 333 -5 61 -4 63 17 56 68 -21 202 -55 218 -55 10 0 42 -15
71 -33 78 -50 141 -68 255 -74 159 -9 254 31 288 122 47 122 -29 247 -165 271
-44 7 -44 8 -15 14 47 11 116 0 162 -26z m-2133 -26 c-5 -13 -8 -39 -7 -58 1
-35 1 -35 -7 -6 -10 32 -2 86 12 86 5 0 6 -10 2 -22z m2033 -28 c50 -22 74
-55 80 -113 12 -108 -53 -160 -201 -161 l-90 -1 -10 34 c-13 44 4 143 38 216
l25 55 58 -6 c32 -4 77 -14 100 -24z m-692 -35 c55 -19 108 -35 117 -35 11 0
25 -17 38 -46 11 -26 20 -48 20 -49 0 -10 -167 43 -232 72 -63 29 -78 40 -78
58 0 44 7 44 135 0z m-1066 -13 c-6 -2 -5 -10 2 -18 18 -22 3 -29 -18 -8 -12
12 -14 19 -6 21 7 3 9 12 6 21 -6 14 -5 15 9 2 9 -8 12 -17 7 -18z m211 18
c-12 -8 -9 -10 13 -10 15 0 27 -4 27 -9 0 -5 -11 -8 -25 -7 -23 3 -24 1 -18
-40 6 -46 -7 -60 -25 -27 -9 15 -11 15 -26 0 -9 -8 -17 -27 -18 -41 -1 -14 -6
-26 -11 -26 -5 0 -8 24 -5 53 4 54 26 92 63 107 28 12 43 12 25 0z m97 3 c-4
-3 -2 -12 5 -20 8 -10 8 -17 0 -25 -9 -9 -12 -8 -12 5 0 11 -8 17 -22 17 -23
1 -23 1 2 15 27 16 37 19 27 8z m53 -27 c0 -3 -4 -8 -10 -11 -5 -3 -10 -1 -10
4 0 6 5 11 10 11 6 0 10 -2 10 -4z m-20 -62 c0 -8 -4 -14 -10 -14 -5 0 -10 9
-10 21 0 11 5 17 10 14 6 -3 10 -13 10 -21z m-363 -66 c-2 -18 -4 -6 -4 27 0
33 2 48 4 33 2 -15 2 -42 0 -60z m42 27 c1 -32 -3 -55 -9 -55 -11 0 -14 68 -4
94 9 24 11 20 13 -39z m281 40 c0 -8 -2 -15 -4 -15 -2 0 -6 7 -10 15 -3 8 -1
15 4 15 6 0 10 -7 10 -15z m-239 -98 c6 -23 6 -44 1 -53 -7 -13 -10 -11 -10
12 -1 16 -4 54 -6 84 -2 30 -2 42 0 25 2 -16 9 -47 15 -68z m-286 -2 c6 -32 9
-36 15 -20 4 11 1 30 -7 45 -7 14 -12 34 -12 45 0 12 5 6 11 -14 7 -24 12 -31
18 -22 4 8 7 -8 7 -38 -1 -29 -3 -47 -5 -41 -3 9 -6 9 -12 -1 -8 -11 -14 5
-47 121 -2 8 2 4 10 -10 8 -14 18 -43 22 -65z m633 24 c-3 -15 -1 -26 4 -23 5
3 6 -7 2 -23 -9 -37 -14 -41 -15 -12 0 22 -1 22 -8 4 -5 -11 -6 -25 -4 -31 7
-20 -39 -44 -83 -44 -54 0 -104 22 -129 56 -24 32 -25 48 -5 51 19 4 47 -14
37 -23 -3 -4 -13 -1 -22 6 -27 22 -17 -7 12 -37 19 -18 38 -27 60 -27 20 0 28
-3 20 -8 -7 -4 6 -8 31 -8 28 0 41 4 37 11 -4 6 0 9 11 7 16 -3 18 3 17 40 -1
25 2 40 7 37 6 -4 10 9 10 30 0 24 4 34 11 29 6 -3 9 -19 7 -35z m1708 -49
c34 -12 81 -10 148 6 l29 7 -7 -74 c-10 -117 -49 -231 -95 -279 -28 -29 -46
-40 -68 -40 -50 0 -87 18 -112 56 -24 35 -24 38 -12 107 7 40 15 118 18 174
l6 102 28 -23 c16 -14 45 -30 65 -36z m-2291 -58 c24 -5 30 -10 22 -18 -4 -4
-13 -1 -22 6 -23 19 -19 -6 6 -31 13 -13 18 -27 14 -42 -6 -21 -5 -21 9 -3 8
10 19 15 25 11 17 -10 13 -25 -4 -19 -9 4 -15 0 -15 -10 0 -35 -22 -14 -35 34
-1 3 -9 22 -18 42 -18 39 -22 60 -9 43 4 -5 16 -12 27 -13z m65 -26 c0 -2 -7
-9 -15 -16 -12 -10 -15 -10 -15 4 0 9 7 16 15 16 8 0 15 -2 15 -4z m-8 -111
c1 -11 7 -23 13 -27 5 -4 6 -10 3 -14 -9 -9 -38 21 -38 39 0 13 11 30 16 25 1
-2 4 -12 6 -23z m128 -29 c0 -3 -4 -8 -10 -11 -5 -3 -10 -1 -10 4 0 6 5 11 10
11 6 0 10 -2 10 -4z m1064 -52 c4 -10 1 -14 -6 -12 -15 5 -23 28 -10 28 5 0
13 -7 16 -16z m-1104 -21 c0 -1 -3 -8 -6 -17 -8 -21 -24 -20 -24 1 0 9 -3 14
-6 10 -3 -3 -3 -15 1 -26 4 -13 11 -18 22 -14 12 5 15 2 10 -10 -5 -14 0 -17
23 -17 17 0 30 -4 30 -8 0 -5 -15 -8 -34 -8 -19 1 -32 4 -30 8 2 3 1 8 -4 10
-4 1 -18 19 -30 39 l-22 36 35 -1 c19 0 35 -2 35 -3z m1135 -2 c3 -5 2 -12 -3
-15 -5 -3 -9 1 -9 9 0 17 3 19 12 6z m-258 -41 c0 -26 -2 -27 -13 -12 -9 12
-9 21 -2 29 14 18 15 17 15 -17z m280 -4 c-1 -6 5 -11 13 -11 20 0 62 -30 53
-38 -10 -10 -25 -8 -19 2 3 5 0 14 -8 20 -11 9 -15 9 -20 -1 -5 -10 -7 -10
-12 0 -3 6 -10 9 -16 6 -11 -7 -30 15 -23 26 7 11 34 7 32 -4z m848 -16 c3 -5
-1 -10 -10 -10 -9 0 -13 5 -10 10 3 6 8 10 10 10 2 0 7 -4 10 -10z m1516 -7
c12 -16 12 -17 -1 -7 -8 7 -24 14 -35 17 -19 4 -19 5 1 6 12 0 28 -7 35 -16z
m-1211 -2 c0 -5 10 -7 23 -5 20 4 20 4 2 -5 -19 -8 -18 -9 8 -20 16 -6 36 -11
45 -10 12 0 9 3 -7 10 -36 14 -22 18 34 8 130 -22 323 -39 455 -39 198 0 454
30 565 65 14 4 13 2 -5 -9 -19 -12 -21 -15 -7 -16 9 0 17 -3 17 -7 0 -5 -36
-8 -79 -8 -85 -1 -107 -9 -78 -30 15 -11 13 -12 -22 -11 -33 0 -36 2 -22 13
14 11 14 12 -5 13 -24 0 -48 -23 -36 -35 4 -5 1 -5 -7 0 -7 4 -16 3 -20 -2 -3
-5 -23 -19 -43 -32 -38 -23 -51 -38 -23 -27 8 3 15 0 15 -5 0 -6 -9 -9 -20 -6
-13 3 -40 -8 -78 -33 l-57 -38 -20 28 c-48 69 -188 111 -301 90 -81 -15 -89
-21 -86 -65 2 -21 -1 -34 -7 -31 -5 3 -7 15 -4 26 7 27 0 25 -39 -10 -18 -16
-27 -30 -21 -30 7 0 15 5 18 10 9 15 25 12 25 -5 0 -8 7 -15 15 -15 10 0 15
-10 15 -29 0 -16 -6 -31 -15 -35 -9 -3 -15 0 -15 9 0 8 5 15 10 15 6 0 10 7
10 15 0 8 -5 15 -10 15 -6 0 -13 -7 -16 -15 -4 -8 -11 -15 -17 -15 -7 0 -7 4
1 12 16 16 15 28 -2 28 -23 0 -26 -40 -5 -61 11 -11 17 -23 15 -28 -14 -22
163 -56 237 -46 l32 5 -35 -11 c-68 -22 -250 19 -250 55 0 8 -7 16 -15 20 -8
3 -15 12 -15 21 0 8 -7 15 -15 15 -37 0 -3 -76 52 -117 21 -15 40 -31 41 -36
2 -4 8 -5 13 -2 5 4 6 -1 3 -9 -7 -19 -20 -21 -30 -4 -5 8 -10 7 -18 -4 -16
-21 -66 -52 -73 -45 -3 4 6 11 21 16 14 6 26 15 26 21 0 7 -6 7 -20 0 -39 -21
-296 -67 -435 -79 -186 -15 -247 -22 -243 -26 3 -4 354 22 441 32 51 5 72 -3
58 -25 -6 -10 -43 -14 -132 -17 -78 -1 -115 1 -99 6 19 7 15 7 -15 3 -22 -3
-95 -7 -162 -8 -96 -3 -123 -1 -123 10 0 7 8 15 18 17 13 4 11 5 -5 6 -17 1
-23 -5 -24 -21 l0 -23 -11 23 c-6 12 -17 22 -25 22 -9 0 -13 14 -13 43 0 98
-116 248 -237 307 -47 23 -49 26 -32 38 11 7 27 11 37 9 12 -3 11 -5 -5 -6
-13 0 -23 -6 -23 -12 0 -7 15 -9 43 -4 28 4 37 3 28 -3 -16 -12 227 -15 244
-4 5 4 66 8 135 8 69 1 148 6 175 12 l50 11 -63 -4 c-37 -3 -61 -1 -57 4 6 11
28 16 158 32 53 7 97 16 97 21 0 4 -7 8 -15 8 -13 0 -11 5 5 22 16 18 23 20
29 10 6 -11 10 -10 16 5 5 10 7 21 7 26 -1 4 3 7 8 7 6 0 10 -4 10 -9z m-1376
-7 c8 -3 12 -12 10 -19 -3 -8 -12 -11 -21 -8 -12 5 -12 7 -1 15 9 7 4 8 -15 3
-19 -4 -26 -2 -22 5 7 11 26 13 49 4z m81 -1 c-35 -9 -42 -24 -10 -22 60 5 85
0 79 -16 -4 -8 -10 -13 -15 -10 -4 3 -17 0 -28 -7 -16 -10 -23 -10 -33 0 -6 6
-22 12 -35 12 -17 0 -21 4 -16 18 9 23 23 32 53 31 20 -1 21 -2 5 -6z m-985
-38 c6 -8 10 -20 8 -26 -2 -6 -12 0 -21 15 -18 27 -8 37 13 11z m50 6 c0 -6
-4 -13 -10 -16 -5 -3 -10 1 -10 9 0 9 5 16 10 16 6 0 10 -4 10 -9z m425 -1
c-3 -5 -11 -10 -16 -10 -6 0 -7 5 -4 10 3 6 11 10 16 10 6 0 7 -4 4 -10z m785
-6 c25 -10 27 -13 9 -9 -14 2 -35 -2 -47 -10 -12 -9 -23 -11 -26 -6 -4 5 3 13
15 16 17 6 19 9 8 16 -21 13 1 9 41 -7z m-60 2 c0 -2 -7 -7 -16 -10 -8 -3 -12
-2 -9 4 6 10 25 14 25 6z m2180 -12 c36 -15 22 -14 -49 2 -25 5 -32 4 -27 -4
8 -14 1 -15 -34 -5 l-25 7 30 7 c46 10 67 9 105 -7z m-2865 -4 c3 -5 -1 -10
-9 -10 -9 0 -16 5 -16 10 0 6 4 10 9 10 6 0 13 -4 16 -10z m762 -27 c-9 -8
-48 8 -42 18 4 5 14 5 26 -2 12 -6 18 -13 16 -16z m166 8 c43 -6 107 -11 142
-11 35 0 67 -5 70 -10 4 -6 11 -8 16 -4 6 3 18 3 27 -1 14 -5 10 -9 -17 -21
-18 -8 -38 -14 -45 -13 -7 0 -6 2 2 6 28 11 9 23 -37 23 -27 0 -71 5 -98 11
-50 11 -75 6 -120 -27 -16 -11 -23 -13 -23 -4 0 6 10 14 22 18 21 5 21 6 2 14
-16 7 -15 8 5 4 16 -3 21 -2 14 5 -6 6 -23 7 -39 3 -25 -6 -26 -8 -9 -15 17
-7 18 -8 3 -8 -10 -1 -18 -5 -18 -11 0 -6 -9 -6 -26 0 -14 6 -41 10 -60 10
-19 0 -33 4 -30 9 3 5 25 5 48 0 24 -4 50 -8 58 -8 13 -1 13 0 0 9 -12 7 -12
10 -1 10 8 0 11 6 7 16 -4 11 -1 14 12 10 9 -3 52 -10 95 -15z m497 10 c-38
-9 -36 -31 3 -30 30 1 31 1 7 9 -24 8 -24 8 7 9 17 1 34 -3 38 -8 5 -9 -14
-14 -93 -25 -12 -2 -39 3 -60 10 -20 7 -32 13 -26 14 6 0 27 2 45 5 30 4 31 4
9 -5 -24 -9 -24 -9 5 -7 17 1 31 8 31 15 1 6 2 14 3 17 0 3 13 4 29 4 l27 -1
-25 -7z m126 -6 c27 -14 27 -15 7 -15 -13 0 -23 5 -23 10 0 6 -16 10 -35 8
-19 -1 -37 1 -41 5 -14 14 64 7 92 -8z m99 5 c-11 -5 -31 -8 -45 -8 -23 0 -22
1 5 8 42 11 65 11 40 0z m1319 -7 c3 -8 2 -12 -3 -9 -5 3 -11 -8 -15 -24 -3
-17 -11 -30 -18 -30 -9 0 -9 3 -1 11 9 9 8 15 -3 27 -21 20 -30 7 -15 -24 10
-23 9 -31 -11 -60 -13 -19 -28 -32 -35 -30 -6 3 -17 -2 -24 -10 -10 -12 -9
-13 7 -7 14 5 10 -4 -15 -35 -37 -47 -75 -74 -64 -46 3 8 15 20 27 24 19 8 19
9 -6 9 -14 1 -28 -4 -30 -11 -2 -6 -9 -8 -16 -4 -9 5 -9 12 1 28 9 16 9 22 0
25 -17 6 -17 46 -1 41 7 -3 13 -13 13 -23 0 -10 14 -26 33 -36 17 -10 32 -14
32 -9 0 5 -8 14 -17 19 -10 6 -13 11 -7 11 5 0 16 -6 23 -12 12 -11 13 -10 7
6 -7 19 30 86 48 86 5 0 3 -7 -4 -15 -16 -20 -5 -32 12 -14 8 8 13 34 13 59 0
38 3 45 20 45 11 1 19 6 18 11 -3 16 25 13 31 -3z m-2930 1 c20 -8 11 -24 -12
-23 -12 0 -13 2 -3 6 11 5 11 7 0 14 -16 10 -8 12 15 3z m-523 -13 c-7 -5 -10
-14 -6 -21 6 -9 9 -10 15 0 5 7 8 2 8 -14 0 -32 -2 -32 -22 -1 -17 26 -14 45
7 45 8 0 7 -3 -2 -9z m1729 -7 c0 -2 -12 -4 -27 -4 -21 0 -24 3 -14 9 13 8 41
5 41 -5z m-1160 -20 c0 -2 -7 -4 -15 -4 -8 0 -15 4 -15 10 0 5 7 7 15 4 8 -4
15 -8 15 -10z m1197 1 c0 -16 -24 -20 -54 -8 -14 6 -11 9 17 14 19 4 35 7 36
8 0 0 1 -6 1 -14z m1453 -6 c0 -5 -10 -9 -21 -9 -18 0 -19 2 -9 15 12 15 30
12 30 -6z m150 12 c0 -14 -37 -23 -61 -16 -17 6 -19 9 -8 16 19 12 69 11 69 0z
m-1884 -19 c-10 -2 -22 0 -28 6 -6 6 0 7 19 4 21 -5 23 -7 9 -10z m1654 8 c0
-5 -4 -10 -9 -10 -6 0 -13 5 -16 10 -3 6 1 10 9 10 9 0 16 -4 16 -10z m-2610
-10 c0 -5 -5 -10 -11 -10 -5 0 -7 5 -4 10 3 6 8 10 11 10 2 0 4 -4 4 -10z
m1283 3 c-7 -2 -19 -2 -25 0 -7 3 -2 5 12 5 14 0 19 -2 13 -5z m1287 -13 c0
-5 -4 -10 -10 -10 -5 0 -10 5 -10 10 0 6 5 10 10 10 6 0 10 -4 10 -10z m-437
-17 c3 -5 -16 -7 -41 -5 -80 5 -90 9 -25 11 34 0 64 -2 66 -6z m474 1 c-3 -3
-12 -4 -19 -1 -8 3 -5 6 6 6 11 1 17 -2 13 -5z m-3044 -56 c2 4 2 1 0 -7 -4
-15 14 -41 29 -41 5 0 6 5 3 11 -4 6 0 9 11 7 13 -2 20 4 22 20 5 36 22 25 20
-13 -1 -22 -4 -31 -9 -23 -4 7 -11 10 -14 6 -7 -7 22 -58 40 -70 6 -5 3 -8 -7
-8 -10 0 -21 0 -25 -1 -4 0 -9 5 -11 13 -2 9 0 8 7 -2 10 -13 11 -13 11 0 0 8
-10 26 -21 40 l-20 25 6 -25 c8 -28 6 -27 -51 45 -51 63 -65 90 -25 48 16 -18
32 -29 34 -25z m0 35 c-4 -10 -9 -11 -19 -2 -18 15 -18 15 5 15 11 0 17 -5 14
-13z m2667 -5 c13 3 13 2 0 -8 -10 -6 -11 -13 -5 -17 6 -5 10 -14 9 -20 -1 -7
-2 -24 -3 -38 0 -14 -6 -25 -12 -25 -7 0 -9 15 -6 40 5 42 2 46 -23 30 -12 -8
-12 -10 5 -11 11 0 14 -3 7 -6 -14 -5 -42 14 -42 28 0 5 12 9 28 9 24 1 25 2
9 11 -14 8 -22 8 -30 0 -6 -6 -18 -11 -26 -11 -11 0 -9 6 9 19 20 16 28 17 45
8 11 -6 27 -10 35 -9z m562 -5 c-18 -28 -25 -30 -17 -4 5 16 2 18 -16 14 -15
-4 -20 -2 -15 5 4 6 19 10 35 9 27 -2 27 -3 13 -24z m-2087 0 c33 -7 68 -16
79 -18 23 -5 34 -15 17 -15 -7 0 -9 -4 -6 -10 3 -5 -3 -10 -14 -10 -13 0 -19
5 -15 14 8 22 -45 31 -65 11 -15 -15 -14 -16 14 -9 17 4 27 4 24 0 -8 -8 -99
-18 -99 -11 0 3 10 10 23 15 17 7 7 9 -41 9 -39 1 -75 -5 -93 -15 -17 -8 -36
-13 -42 -10 -7 2 -3 5 8 6 l20 1 -20 10 c-17 8 -15 8 8 4 15 -3 27 -1 27 5 0
5 12 11 28 11 l27 2 -29 4 c-21 3 -25 7 -16 13 20 12 98 9 165 -7z m1825 9 c0
-4 -14 -13 -30 -19 -21 -8 -28 -16 -24 -27 3 -9 1 -16 -5 -16 -17 0 -13 27 6
50 17 19 53 28 53 12z m-2045 -22 c-22 -10 -33 -19 -25 -20 12 0 11 -3 -3 -11
-15 -9 -16 -13 -6 -26 10 -12 10 -16 -2 -24 -25 -16 -32 -10 -25 22 5 28 4 31
-15 26 -17 -5 -18 -3 -8 9 8 10 15 12 23 4 17 -17 29 -11 15 8 -7 9 -10 14 -5
10 4 -3 19 0 34 8 15 8 34 14 42 13 8 0 -3 -9 -25 -19z m1962 -35 c2 -21 -2
-35 -8 -35 -6 0 -9 9 -6 20 3 10 0 21 -7 24 -7 3 -6 8 4 15 8 6 15 11 15 11 0
0 1 -16 2 -35z m-160 18 c-4 -3 1 -12 11 -19 14 -10 15 -15 4 -26 -11 -11 -12
-10 -7 3 4 11 -1 18 -17 23 -19 5 -20 8 -8 16 17 11 26 13 17 3z m241 -5 c-3
-7 -13 -15 -24 -17 -16 -3 -17 -1 -5 13 16 19 34 21 29 4z m-1925 -5 c-7 -2
-21 -2 -30 0 -10 3 -4 5 12 5 17 0 24 -2 18 -5z m254 -9 c15 -3 93 -65 93 -75
0 -4 -5 -11 -12 -15 -7 -5 -8 -3 -3 6 4 7 2 16 -6 21 -22 14 -33 10 -19 -6 8
-9 8 -15 2 -15 -6 0 -12 6 -15 13 -4 10 -7 10 -18 0 -16 -16 -59 -17 -59 -2 0
5 5 7 11 4 12 -8 69 14 69 26 0 12 -7 11 -33 -2 -20 -9 -20 -9 -4 4 20 17 22
29 5 26 -31 -4 -48 2 -48 17 0 10 5 12 13 7 6 -4 17 -8 24 -9z m1546 -11 c-4
-11 -3 -14 5 -9 9 5 12 -4 11 -31 -1 -21 -3 -30 -6 -20 -2 9 -8 17 -13 17 -9
0 -20 47 -12 55 12 11 21 4 15 -12z m-2038 -22 c-4 -15 1 -23 22 -33 21 -10
28 -21 28 -41 1 -26 0 -27 -12 -11 -7 10 -13 21 -13 26 0 4 -7 8 -16 8 -11 0
-14 -6 -9 -21 l7 -21 -21 21 c-27 27 -27 30 -4 63 21 33 27 35 18 9z m-95 -24
c0 -28 -15 -53 -24 -39 -3 6 -1 14 5 17 6 4 8 18 4 32 -4 16 -2 22 5 18 5 -3
10 -16 10 -28z m411 26 c28 -5 30 -7 14 -14 -44 -17 -109 -6 -88 15 8 8 32 8
74 -1z m1624 -33 c-9 -16 -17 -30 -19 -30 -3 0 -13 -3 -23 -7 -11 -4 -5 7 17
30 19 20 36 37 37 37 2 0 -3 -13 -12 -30z m145 0 c0 -5 -4 -10 -10 -10 -5 0
-10 5 -10 10 0 6 5 10 10 10 6 0 10 -4 10 -10z m257 -17 c-4 -3 -1 -13 6 -21
11 -13 9 -14 -10 -2 -22 14 -22 30 -1 30 6 0 8 -3 5 -7z m-2903 -24 c-3 -5
-10 -7 -15 -3 -5 3 -7 10 -3 15 3 5 10 7 15 3 5 -3 7 -10 3 -15z m1182 -17
c-4 -3 -11 0 -16 8 -15 24 -11 33 6 15 9 -9 13 -19 10 -23z m1149 15 c11 -2
-16 -3 -59 -1 -43 2 -82 7 -85 10 -3 4 9 4 27 1 17 -4 32 -2 32 2 0 6 14 6 33
1 17 -5 41 -11 52 -13z m52 17 c-3 -3 -12 -4 -19 -1 -8 3 -5 6 6 6 11 1 17 -2
13 -5z m-2472 -14 c3 -5 2 -10 -4 -10 -5 0 -13 5 -16 10 -3 6 -2 10 4 10 5 0
13 -4 16 -10z m615 -16 c0 -8 -4 -14 -10 -14 -5 0 -10 -11 -10 -25 0 -14 5
-25 11 -25 7 0 8 -11 3 -32 -6 -30 -5 -32 11 -18 9 8 21 23 25 35 5 12 7 -8 6
-50 l-2 -70 -35 0 c-28 0 -35 4 -37 22 -3 17 0 21 12 17 19 -7 19 -3 6 67 -11
55 -4 123 11 113 5 -3 9 -12 9 -20z m2340 16 c8 -5 11 -12 7 -16 -4 -4 -15 0
-24 9 -18 18 -8 23 17 7z m-435 -18 c-3 -3 -11 0 -18 7 -9 10 -8 11 6 5 10 -3
15 -9 12 -12z m132 -9 c-2 -23 -7 -28 -30 -30 -16 -1 -25 2 -22 8 4 5 9 7 13
5 4 -2 13 2 20 10 7 8 10 14 7 14 -3 0 -3 5 0 10 10 17 14 11 12 -17z m-2672
-3 c10 -11 14 -20 8 -20 -5 0 -18 9 -28 20 -10 11 -14 20 -8 20 5 0 18 -9 28
-20z m1265 -9 c0 -10 -7 -24 -14 -31 -15 -11 -15 -6 -7 53 2 16 21 -4 21 -22z
m1680 9 c0 -5 -4 -10 -9 -10 -6 0 -13 5 -16 10 -3 6 1 10 9 10 9 0 16 -4 16
-10z m-2293 -47 c-3 -10 -5 -2 -5 17 0 19 2 27 5 18 2 -10 2 -26 0 -35z m677
-17 c-3 -25 -3 -27 5 -11 5 11 10 15 10 8 1 -6 4 -20 7 -30 5 -15 4 -16 -5 -3
-9 11 -11 0 -10 -51 1 -36 -2 -73 -7 -81 -6 -11 -9 23 -8 93 0 60 -3 112 -8
115 -4 3 -8 11 -8 17 0 7 7 4 15 -7 8 -11 12 -31 9 -50z m1653 47 c-9 -9 -19
-14 -23 -11 -10 10 6 28 24 28 15 0 15 -1 -1 -17z m-2950 -14 c-4 -16 -2 -19
11 -14 9 4 29 8 43 10 24 1 25 -1 23 -41 -2 -38 1 -44 34 -68 20 -14 38 -23
41 -19 4 3 0 8 -6 10 -17 6 -16 20 2 27 11 4 14 -2 11 -25 -2 -16 -5 -32 -8
-34 -2 -3 -35 25 -73 60 -38 36 -75 67 -82 69 -11 4 -7 46 4 46 3 0 3 -9 0
-21z m2906 4 c4 -3 2 -12 -5 -20 -6 -7 -8 -16 -5 -19 9 -9 -112 -114 -132
-114 -10 0 -24 7 -31 15 -14 17 0 21 17 4 6 -6 17 -8 23 -4 16 10 -2 27 -32
30 -36 4 -38 4 -38 15 0 10 51 10 60 0 13 -13 50 -29 50 -21 0 6 -4 12 -9 15
-10 7 9 56 22 56 12 0 8 -18 -8 -33 -11 -11 -11 -16 -2 -20 14 -5 39 18 29 27
-3 4 4 10 17 13 23 6 23 6 -5 20 l-29 13 28 -4 c15 -2 30 1 33 5 3 5 -3 9 -13
9 -15 0 -16 2 -3 10 18 12 24 12 33 3z m-353 -33 c-8 -6 -22 -10 -30 -9 -9 0
-5 6 10 14 27 14 44 10 20 -5z m-2051 -45 c0 -5 -4 -3 -9 5 -5 8 -9 22 -9 30
0 16 17 -16 18 -35z m187 25 c0 -11 -6 -20 -13 -20 -11 0 -11 5 -3 20 6 11 12
20 13 20 2 0 3 -9 3 -20z m1663 4 c9 -8 -45 -2 -64 6 -14 7 -8 8 20 3 22 -3
42 -7 44 -9z m136 6 c-3 -5 -14 -10 -23 -9 -14 0 -13 2 3 9 27 11 27 11 20 0z
m-1954 -27 c-12 -20 -14 -14 -5 12 4 9 9 14 11 11 3 -2 0 -13 -6 -23z m1757
11 c4 -4 -6 -4 -23 0 l-30 6 25 -15 25 -14 -25 -1 c-24 0 -50 16 -50 31 0 8
70 3 78 -7z m251 -11 c20 -8 12 -9 -37 -8 -35 1 -67 6 -72 11 -12 12 78 10
109 -3z m-196 -4 c-8 -8 -16 -8 -30 0 -16 9 -14 10 12 11 21 0 26 -3 18 -11z
m-2203 -13 c0 -2 -7 -6 -15 -10 -8 -3 -15 -1 -15 4 0 6 7 10 15 10 8 0 15 -2
15 -4z m1120 -16 c-12 -22 -30 -18 -30 6 0 8 9 14 20 14 18 0 19 -3 10 -20z
m740 0 c0 -5 -7 -10 -15 -10 -8 0 -15 5 -15 10 0 6 7 10 15 10 8 0 15 -4 15
-10z m-683 -47 c-3 -10 -5 -4 -5 12 0 17 2 24 5 18 2 -7 2 -21 0 -30z m-97
-17 c0 -14 -4 -28 -10 -31 -6 -4 -10 7 -10 24 0 17 5 31 10 31 6 0 10 -11 10
-24z m173 -76 c-2 -2 -7 1 -12 8 -5 8 -14 2 -31 -20 -15 -20 -18 -29 -8 -26
10 4 14 0 13 -15 -1 -19 -8 -22 -41 -22 -33 -1 -38 -4 -36 -20 3 -16 2 -17
-12 -6 -15 12 -15 15 1 26 9 7 24 10 32 7 9 -3 12 -1 7 6 -5 8 -1 10 10 5 13
-5 16 -2 12 9 -3 8 7 34 23 58 16 24 30 55 30 69 1 14 5 4 9 -24 4 -27 5 -52
3 -55z m27 57 c0 -18 -2 -19 -10 -7 -13 20 -13 43 0 35 6 -3 10 -16 10 -28z
m-1195 13 c13 0 17 -38 4 -45 -5 -3 -6 1 -2 11 5 13 2 15 -15 10 -11 -4 -23
-2 -27 3 -3 7 0 8 9 5 25 -10 19 5 -6 17 -22 9 -22 9 2 4 14 -2 30 -5 35 -5z
m1212 -27 c-3 -10 -5 -4 -5 12 0 17 2 24 5 18 2 -7 2 -21 0 -30z m1277 22 c14
-6 17 -5 12 3 -4 7 -3 12 2 12 18 0 21 -13 5 -25 -13 -10 -20 -10 -31 1 -21
22 -37 16 -17 -5 17 -19 16 -21 -30 -53 -26 -18 -58 -33 -72 -33 -21 -1 -23 1
-8 11 12 9 13 13 3 17 -7 2 5 4 27 3 26 -1 39 3 38 11 -2 8 4 10 14 6 11 -4
14 -3 9 5 -4 7 -2 12 4 12 6 0 8 5 5 11 -4 6 -13 8 -20 5 -9 -3 -13 2 -12 13
1 19 33 21 71 6z m-2376 -80 c12 -3 22 -11 22 -17 0 -7 -5 -6 -15 2 -8 6 -20
10 -27 7 -8 -3 -2 -10 15 -17 22 -11 30 -11 40 -1 9 10 8 15 -7 27 -11 8 -14
14 -7 14 22 0 38 -25 37 -56 -1 -23 3 -28 18 -26 11 2 15 -1 11 -7 -3 -6 -2
-11 4 -11 5 0 13 5 16 10 3 6 18 10 33 9 26 0 26 -1 -8 -15 -19 -8 -25 -12
-12 -10 12 2 20 0 16 -5 -3 -5 6 -13 19 -18 14 -6 28 -15 32 -21 4 -6 14 -9
24 -5 12 4 13 3 5 -5 -8 -8 -24 -4 -60 15 -110 59 -223 129 -218 137 3 5 13 7
22 4 10 -2 27 -7 40 -11z m900 -6 c-14 -11 -27 -14 -33 -9 -6 5 -22 13 -34 18
-18 6 -10 8 33 8 57 0 57 0 34 -17z m1302 1 c8 -5 11 -12 7 -16 -3 -4 -12 -2
-19 3 -7 6 -22 13 -33 16 -16 4 -16 5 5 6 14 0 32 -3 40 -9z m-1364 -15 c16
-8 26 -15 23 -15 -4 0 -23 -7 -42 -15 -32 -13 -36 -13 -31 0 4 8 16 16 28 16
18 1 18 2 3 6 -10 3 -27 -3 -37 -12 -11 -10 -20 -12 -24 -6 -5 7 28 34 50 41
1 0 15 -7 30 -15z m1334 -15 c0 -5 -4 -10 -9 -10 -6 0 -13 5 -16 10 -3 6 1 10
9 10 9 0 16 -4 16 -10z m35 -20 c-20 -22 -31 -20 -22 5 4 8 14 15 23 15 16 0
16 -2 -1 -20z m-45 -7 c0 -16 -16 -31 -53 -52 -43 -24 -61 -27 -33 -6 17 13
18 15 3 15 -9 0 -17 5 -17 10 0 13 13 13 27 -1 6 -6 17 -8 24 -3 10 6 5 12
-16 21 -26 12 -27 13 -5 9 14 -3 32 -1 40 4 18 12 30 13 30 3z m-1945 -14 c11
-17 0 -20 -21 -4 -17 13 -17 14 -2 15 9 0 20 -5 23 -11z m300 -26 c-7 -41 -12
-50 -21 -41 -9 9 7 78 18 78 6 0 8 -14 3 -37z m163 30 c-10 -2 -26 -2 -35 0
-10 3 -2 5 17 5 19 0 27 -2 18 -5z m-483 -25 c14 -6 25 -15 25 -20 0 -5 -5 -6
-10 -3 -6 3 -22 13 -38 21 -32 17 -14 19 23 2z m720 0 c14 -6 25 -15 25 -20 0
-13 -18 -10 -23 5 -4 8 -8 9 -14 1 -4 -6 -15 -14 -23 -18 -8 -3 -3 -4 12 -1
15 3 30 1 33 -5 4 -6 -8 -10 -30 -10 -32 0 -36 3 -30 20 4 11 2 20 -4 20 -10
0 -15 -14 -12 -32 0 -5 -3 -8 -9 -8 -5 0 -10 7 -10 15 0 8 -6 15 -12 16 -7 1
-2 4 12 9 14 4 36 5 50 3 20 -4 22 -2 10 6 -20 14 -7 14 25 -1z m105 2 c0 -5
-4 -10 -10 -10 -5 0 -10 5 -10 10 0 6 5 10 10 10 6 0 10 -4 10 -10z m-435 -20
c-3 -5 -11 -10 -16 -10 -6 0 -7 5 -4 10 3 6 11 10 16 10 6 0 7 -4 4 -10z
m-118 -22 c-3 -8 -6 -5 -6 6 -1 11 2 17 5 13 3 -3 4 -12 1 -19z m193 18 c0 -2
-11 -6 -25 -8 -13 -3 -22 -1 -19 3 5 9 44 13 44 5z m133 -3 c-7 -2 -19 -2 -25
0 -7 3 -2 5 12 5 14 0 19 -2 13 -5z m-248 -13 c3 -5 1 -10 -4 -10 -6 0 -11 5
-11 10 0 6 2 10 4 10 3 0 8 -4 11 -10z m193 3 c-10 -2 -28 -2 -40 0 -13 2 -5
4 17 4 22 1 32 -1 23 -4z m232 -3 c0 -5 -8 -10 -17 -10 -15 0 -16 2 -3 10 19
12 20 12 20 0z m1051 -3 c14 -10 12 -14 -16 -27 -29 -14 -36 -14 -81 2 -46 16
-47 17 -16 18 17 0 32 -4 32 -10 0 -19 32 -10 37 10 6 23 21 25 44 7z m-1214
-3 c-3 -3 -12 -4 -19 -1 -8 3 -5 6 6 6 11 1 17 -2 13 -5z m-557 -14 c0 -5 -7
-10 -16 -10 -8 0 -12 5 -9 10 3 6 10 10 16 10 5 0 9 -4 9 -10z m87 4 c-3 -3
-12 -4 -19 -1 -8 3 -5 6 6 6 11 1 17 -2 13 -5z m83 -5 c0 -5 -8 -9 -17 -8 -38
3 -46 0 -34 -15 6 -8 10 -20 9 -27 -2 -9 8 -15 25 -17 15 -2 27 -8 27 -14 0
-5 7 -7 16 -4 9 3 12 2 9 -5 -8 -11 -30 -6 -98 26 -26 12 -44 25 -40 30 5 4
-5 5 -22 1 -29 -7 -29 -7 -10 9 20 16 20 16 -4 9 -16 -4 -21 -3 -17 5 11 17
25 13 58 -14 17 -14 33 -23 36 -20 4 3 0 10 -8 15 -11 7 -11 11 -1 24 15 18
71 22 71 5z m1484 -14 c52 -11 62 -21 30 -30 -16 -5 -31 -9 -34 -10 -3 -1 -23
-9 -44 -18 -22 -10 -44 -15 -50 -13 -6 2 -3 5 7 5 11 1 15 5 11 13 -5 7 -2 9
7 6 9 -3 26 3 40 13 l24 20 -40 -5 c-22 -3 -32 -3 -22 0 9 3 17 9 17 14 0 5
-8 11 -17 14 -22 6 30 -1 71 -9z m-1367 -20 c1 -5 -13 -10 -32 -11 -30 0 -32
1 -17 13 19 14 44 13 49 -2z m1143 5 c0 -5 -5 -10 -11 -10 -5 0 -7 5 -4 10 3
6 8 10 11 10 2 0 4 -4 4 -10z m-1127 -47 c-7 -2 -19 -2 -25 0 -7 3 -2 5 12 5
14 0 19 -2 13 -5z m67 -3 c0 -11 -61 -24 -87 -17 -10 3 -1 5 20 6 20 0 37 6
37 11 0 6 7 10 15 10 8 0 15 -4 15 -10z m1076 -2 c-9 -5 -29 -5 -48 0 -31 9
-31 9 15 9 33 0 44 -3 33 -9z m-1189 -4 c-3 -3 -12 -4 -19 -1 -8 3 -5 6 6 6
11 1 17 -2 13 -5z m1238 -4 c-3 -5 -1 -10 6 -10 7 0 10 -2 7 -5 -3 -3 -13 -2
-22 1 -14 5 -15 9 -4 15 17 11 20 11 13 -1z m-53 -13 c26 -5 34 -17 11 -17
-11 0 -23 -3 -27 -7 -3 -4 -13 -8 -20 -9 -7 -1 -24 -5 -36 -9 -14 -4 -20 -3
-16 3 3 5 -1 13 -10 16 -12 5 -13 8 -2 21 12 15 36 15 100 2z m-1117 -10 c48
0 49 -1 18 -10 -24 -7 -46 -6 -85 7 -31 9 -38 13 -18 10 19 -4 58 -7 85 -7z
m98 -44 c-7 -2 -19 -2 -25 0 -7 3 -2 5 12 5 14 0 19 -2 13 -5z m246 -9 c8 -7
-54 -2 -79 6 -17 6 -9 7 25 3 28 -3 52 -7 54 -9z m279 4 c-14 -5 -6 -6 20 -3
25 3 42 1 42 -5 0 -6 -33 -10 -77 -11 -133 -2 -192 -5 -198 -10 -2 -3 73 -4
168 -3 122 1 153 0 107 -6 -115 -14 -241 -11 -404 10 -88 11 -162 23 -165 27
-3 3 19 2 49 -2 30 -4 82 -10 115 -15 63 -8 165 -2 165 9 0 4 19 6 43 4 36 -2
38 -1 12 5 -19 5 1 8 58 7 52 0 79 -3 65 -7z m249 6 c-3 -3 -12 -4 -19 -1 -8
3 -5 6 6 6 11 1 17 -2 13 -5z m112 -5 c-15 -6 -41 -6 -65 0 -37 8 -35 8 26 9
51 0 59 -2 39 -9z m-561 -6 c-10 -2 -28 -2 -40 0 -13 2 -5 4 17 4 22 1 32 -1
23 -4z m362 -4 c-16 -5 3 -7 55 -4 l80 4 -75 -12 c-41 -7 -76 -9 -78 -5 -2 5
-11 8 -20 9 -25 1 17 18 43 17 16 0 15 -2 -5 -9z"/>
<path d="M770 3210 c-19 -3 -54 -16 -77 -28 -61 -32 -111 -102 -63 -89 14 3
18 1 13 -6 -4 -7 -9 -23 -11 -37 -2 -13 -6 -27 -9 -30 -3 -3 -3 8 -1 23 8 41
-7 20 -26 -36 -16 -49 -19 -109 -7 -162 5 -19 8 2 9 59 1 53 6 94 13 100 9 8
10 2 6 -27 -3 -20 -1 -51 5 -67 7 -21 7 -39 -1 -60 -5 -16 -6 -30 -1 -30 5 0
10 8 13 18 2 9 4 3 4 -15 0 -26 -2 -29 -13 -18 -19 18 -54 7 -54 -16 0 -33 46
-112 92 -156 113 -110 275 -113 381 -6 65 64 82 114 82 233 -1 95 -3 110 -28
158 -72 138 -206 217 -327 192z m41 -47 c-11 -5 -11 -7 0 -14 10 -6 7 -9 -10
-9 -20 0 -21 2 -11 15 7 8 18 15 24 14 6 0 5 -3 -3 -6z m-58 -10 c-7 -2 -19
-2 -25 0 -7 3 -2 5 12 5 14 0 19 -2 13 -5z m126 -4 c17 -6 31 -15 31 -20 0 -5
7 -9 15 -9 8 0 15 -4 15 -10 0 -13 -17 -13 -25 1 -4 6 -14 8 -22 5 -11 -5 -13
-2 -9 10 4 11 1 14 -13 9 -12 -3 -21 0 -25 10 -7 18 -7 18 33 4z m-159 -32 c0
-5 -5 -5 -10 -2 -6 4 -18 1 -26 -6 -8 -6 -17 -9 -21 -6 -3 4 5 15 18 26 23 18
38 13 39 -12z m80 -12 c0 -8 -7 -15 -15 -15 -9 0 -12 6 -9 15 4 8 10 15 15 15
5 0 9 -7 9 -15z m-85 -15 c3 -6 -1 -7 -9 -4 -18 7 -21 14 -7 14 6 0 13 -4 16
-10z m190 0 c-3 -5 -10 -10 -16 -10 -5 0 -9 5 -9 10 0 6 7 10 16 10 8 0 12 -4
9 -10z m65 1 c0 -14 -10 -18 -55 -26 l-40 -6 40 20 c46 23 55 24 55 12z m-293
-17 c-3 -3 -12 -4 -19 -1 -8 3 -5 6 6 6 11 1 17 -2 13 -5z m305 -6 c-16 -16
-15 -33 1 -19 19 15 71 -79 62 -110 -4 -12 -3 -19 2 -16 5 3 10 -27 10 -66 1
-48 -1 -65 -7 -52 -4 11 -6 29 -3 41 2 11 -4 43 -15 71 -13 34 -16 55 -10 61
7 7 4 10 -7 9 -10 -1 -20 5 -22 13 -4 13 -3 13 6 0 5 -8 13 -11 16 -8 4 4 0
16 -8 28 l-15 22 -7 -21 c-3 -12 -10 -21 -15 -21 -5 0 -7 7 -4 15 4 8 1 22 -5
29 -10 11 -8 17 6 25 24 14 30 14 15 -1z m-249 -5 c-7 -2 -21 -2 -30 0 -10 3
-4 5 12 5 17 0 24 -2 18 -5z m-96 -95 c-3 -7 -5 -2 -5 12 0 14 2 19 5 13 2 -7
2 -19 0 -25z m343 -54 c0 -8 -4 -14 -10 -14 -5 0 -10 9 -10 21 0 11 5 17 10
14 6 -3 10 -13 10 -21z m57 -108 c-3 -7 -1 -18 5 -24 8 -8 8 -15 0 -25 -7 -8
-8 -18 -4 -23 4 -4 -1 -2 -10 5 -16 12 -17 46 -1 74 7 13 15 8 10 -7z m-401
-52 c-2 -6 1 -18 7 -25 10 -11 9 -11 -5 0 -9 7 -14 19 -11 27 3 8 1 14 -5 14
-5 0 -13 8 -16 17 -6 15 -4 14 14 -2 11 -10 19 -24 16 -31z m79 -24 c11 -17
-5 -31 -19 -17 -14 12 -12 27 4 27 5 0 12 -4 15 -10z m268 3 c-7 -2 -13 -9
-13 -15 0 -6 7 -8 15 -4 12 4 13 2 6 -13 -6 -10 -7 -21 -3 -25 3 -4 0 -11 -8
-16 -24 -15 -31 -11 -20 10 6 11 8 25 5 31 -9 14 2 39 17 38 10 0 10 -2 1 -6z
m37 -12 c0 -10 -8 -25 -17 -32 -16 -12 -17 -12 -5 2 7 9 10 24 6 33 -3 9 -1
16 5 16 6 0 11 -8 11 -19z m-326 -40 c-6 -6 -34 20 -34 32 0 6 8 2 19 -9 10
-10 17 -21 15 -23z m156 17 c-14 -5 -33 -14 -42 -19 -10 -5 -25 -9 -33 -9 -9
0 -14 -4 -11 -9 6 -10 -24 -25 -32 -16 -3 3 1 5 9 5 11 0 11 2 -1 10 -13 8
-13 10 1 10 9 0 19 9 22 20 4 17 13 20 59 19 46 0 50 -2 28 -11z m-33 -44 c-3
-3 -12 -4 -19 -1 -8 3 -5 6 6 6 11 1 17 -2 13 -5z m93 -4 c-8 -5 -26 -9 -40
-9 l-25 1 25 8 c14 4 32 8 40 9 13 1 13 0 0 -9z m-45 -24 c11 0 34 4 50 8 28
7 28 6 -5 -9 -22 -11 -48 -14 -70 -10 -19 3 -43 6 -52 7 -9 1 -14 6 -12 10 3
4 19 4 37 1 18 -4 41 -7 52 -7z"/>
<path d="M600 2889 c0 -5 5 -7 10 -4 6 3 10 8 10 11 0 2 -4 4 -10 4 -5 0 -10
-5 -10 -11z"/>
<path d="M670 1586 c0 -9 5 -16 10 -16 6 0 10 4 10 9 0 6 -4 13 -10 16 -5 3
-10 -1 -10 -9z"/>
<path d="M1571 1444 c-32 -14 -32 -16 -15 -29 11 -8 25 -15 32 -15 18 0 14 18
-5 23 -14 4 -12 5 5 6 12 1 22 7 22 16 0 8 -1 15 -2 14 -2 0 -18 -7 -37 -15z"/>
<path d="M900 1430 c-8 -5 -11 -12 -7 -17 5 -4 12 -1 16 6 5 8 11 9 15 3 3 -6
0 -12 -6 -15 -7 -2 -9 -8 -5 -13 4 -5 12 -2 17 6 18 28 -2 48 -30 30z"/>
<path d="M980 1350 c-8 -5 -11 -12 -7 -17 5 -4 12 -1 16 6 5 8 11 9 15 3 3 -6
0 -12 -6 -15 -7 -2 -9 -8 -5 -13 4 -5 12 -2 18 6 8 13 10 13 19 0 5 -8 10 -10
10 -4 0 10 -31 44 -41 44 -2 0 -11 -4 -19 -10z"/>
<path d="M1893 2013 c-29 -26 -37 -45 -34 -81 0 -7 20 -33 42 -57 50 -55 82
-59 128 -16 44 41 42 76 -10 135 -49 55 -79 59 -126 19z m106 -48 c17 -20 31
-40 31 -45 0 -10 -51 -60 -61 -60 -12 0 -79 80 -79 94 0 18 38 46 61 46 9 0
31 -16 48 -35z"/>
<path d="M490 1970 c0 -11 5 -20 10 -20 6 0 10 9 10 20 0 11 -4 20 -10 20 -5
0 -10 -9 -10 -20z"/>
<path d="M748 1838 c-33 -38 -36 -53 -9 -38 11 5 27 7 35 4 18 -7 23 21 6 31
-8 5 -7 11 1 21 6 8 8 14 3 14 -5 0 -21 -15 -36 -32z"/>
<path d="M2851 1267 c-7 -9 -19 -13 -27 -10 -8 3 -14 0 -14 -7 0 -6 5 -8 10
-5 12 7 12 3 4 -19 -3 -9 -18 -16 -33 -16 -25 0 -69 -20 -45 -20 28 0 171 34
194 46 14 7 19 13 12 14 -7 0 -22 -5 -32 -10 -11 -6 -33 -12 -49 -14 -28 -3
-29 -2 -19 18 10 18 13 19 16 4 2 -10 9 -15 18 -11 18 7 18 23 0 23 -8 0 -16
5 -18 11 -2 7 -8 6 -17 -4z"/>
<path d="M2695 1190 c-19 -8 -19 -9 3 -9 12 -1 22 4 22 9 0 6 -1 10 -2 9 -2 0
-12 -4 -23 -9z"/>
<path d="M2333 1143 c9 -2 23 -2 30 0 6 3 -1 5 -18 5 -16 0 -22 -2 -12 -5z"/>
<path d="M3031 1054 c0 -11 3 -14 6 -6 3 7 2 16 -1 19 -3 4 -6 -2 -5 -13z"/>
<path d="M2755 770 c-3 -5 -20 -10 -37 -10 -17 0 -29 -3 -25 -6 9 -9 137 7
137 17 0 12 -67 11 -75 -1z"/>
<path d="M1580 1250 c0 -5 5 -10 10 -10 6 0 10 5 10 10 0 6 -4 10 -10 10 -5 0
-10 -4 -10 -10z"/>
<path d="M1760 1108 c0 -4 21 -8 48 -7 52 1 48 6 -10 11 -21 2 -38 0 -38 -4z"/>
<path d="M1487 997 c-3 -8 1 -14 9 -14 8 0 14 6 14 14 0 7 -4 13 -9 13 -5 0
-11 -6 -14 -13z"/>
<path d="M1486 806 c3 -8 -4 -21 -16 -29 -12 -8 -17 -18 -12 -21 6 -3 13 0 15
6 4 10 8 9 16 -2 5 -8 13 -11 18 -7 4 5 1 12 -7 18 -13 7 -13 10 -1 18 7 5 10
14 7 20 -10 16 -26 14 -20 -3z"/>
<path d="M913 870 c1 -11 2 -20 3 -20 1 0 9 3 18 6 13 5 13 8 1 20 -19 19 -24
18 -22 -6z"/>
<path d="M1250 600 c0 -5 5 -10 10 -10 6 0 10 5 10 10 0 6 -4 10 -10 10 -5 0
-10 -4 -10 -10z"/>
<path d="M3350 570 c-9 -6 -10 -10 -3 -10 6 0 15 5 18 10 8 12 4 12 -15 0z"/>
<path d="M3199 483 c-13 -17 -13 -17 6 -3 11 8 22 16 24 17 2 2 0 3 -6 3 -6 0
-17 -8 -24 -17z"/>
<path d="M3127 459 c7 -7 15 -10 18 -7 3 3 -2 9 -12 12 -14 6 -15 5 -6 -5z"/>
<path d="M2840 380 c-19 -11 2 -17 35 -10 l30 6 -27 5 c-15 3 -32 3 -38 -1z"/>
<path d="M3639 3786 c-15 -7 -25 -22 -27 -38 -3 -22 20 -141 63 -334 4 -17 -2
-23 -35 -33 -81 -24 -125 -101 -95 -165 57 -119 275 -71 275 60 0 18 -13 91
-30 164 -16 73 -30 136 -30 142 0 17 62 -27 76 -54 18 -35 18 -70 -1 -115 -22
-52 -20 -73 9 -73 29 0 72 33 91 70 21 40 19 126 -4 175 -23 50 -57 80 -148
134 -40 23 -73 45 -73 50 0 18 -47 29 -71 17z m145 -121 c35 -19 70 -43 79
-53 38 -41 60 -137 39 -169 -5 -8 -8 8 -8 36 0 37 -6 57 -26 83 -29 38 -108
81 -140 76 -28 -4 -28 -1 17 -206 38 -171 36 -189 -17 -222 -39 -24 -69 -25
-108 -5 -74 38 -36 122 63 139 21 4 40 13 43 19 2 7 -14 93 -35 191 -22 99
-38 183 -35 188 3 5 19 -3 35 -17 17 -13 58 -40 93 -60z"/>
<path d="M3610 2779 c-175 -107 -190 -118 -200 -143 -5 -15 -1 -60 12 -131 15
-76 18 -110 10 -113 -28 -9 -79 -51 -100 -82 -19 -27 -23 -44 -18 -75 7 -57
45 -85 113 -85 45 0 58 5 89 32 64 57 68 78 39 225 -14 71 -25 133 -25 140 0
7 42 37 93 67 l92 56 12 -58 c7 -31 12 -60 13 -63 0 -3 -18 -13 -40 -23 -48
-21 -87 -66 -95 -109 -26 -139 187 -166 246 -32 l19 43 -36 193 c-37 197 -50
229 -88 228 -12 0 -73 -32 -136 -70z m150 21 c0 -5 -6 -10 -14 -10 -21 0 -233
-129 -273 -167 -31 -28 -34 -29 -31 -10 2 16 42 45 148 109 140 85 170 99 170
78z m-30 -362 c-25 -20 -36 -22 -44 -9 -17 27 26 57 53 37 11 -8 9 -14 -9 -28z
m-283 -143 c-9 -21 -36 -30 -50 -16 -9 10 -7 17 12 32 26 21 48 12 38 -16z"/>
</g>
</svg>
